%TF.GenerationSoftware,KiCad,Pcbnew,(6.0.2)*%
%TF.CreationDate,2023-02-28T18:47:33+01:00*%
%TF.ProjectId,st_link_diy_panel,73745f6c-696e-46b5-9f64-69795f70616e,rev?*%
%TF.SameCoordinates,Original*%
%TF.FileFunction,Soldermask,Bot*%
%TF.FilePolarity,Negative*%
%FSLAX46Y46*%
G04 Gerber Fmt 4.6, Leading zero omitted, Abs format (unit mm)*
G04 Created by KiCad (PCBNEW (6.0.2)) date 2023-02-28 18:47:33*
%MOMM*%
%LPD*%
G01*
G04 APERTURE LIST*
G04 Aperture macros list*
%AMRoundRect*
0 Rectangle with rounded corners*
0 $1 Rounding radius*
0 $2 $3 $4 $5 $6 $7 $8 $9 X,Y pos of 4 corners*
0 Add a 4 corners polygon primitive as box body*
4,1,4,$2,$3,$4,$5,$6,$7,$8,$9,$2,$3,0*
0 Add four circle primitives for the rounded corners*
1,1,$1+$1,$2,$3*
1,1,$1+$1,$4,$5*
1,1,$1+$1,$6,$7*
1,1,$1+$1,$8,$9*
0 Add four rect primitives between the rounded corners*
20,1,$1+$1,$2,$3,$4,$5,0*
20,1,$1+$1,$4,$5,$6,$7,0*
20,1,$1+$1,$6,$7,$8,$9,0*
20,1,$1+$1,$8,$9,$2,$3,0*%
G04 Aperture macros list end*
%ADD10RoundRect,0.250000X0.400000X0.625000X-0.400000X0.625000X-0.400000X-0.625000X0.400000X-0.625000X0*%
%ADD11RoundRect,0.250000X-0.550000X1.075000X-0.550000X-1.075000X0.550000X-1.075000X0.550000X1.075000X0*%
%ADD12RoundRect,0.250000X-0.625000X0.400000X-0.625000X-0.400000X0.625000X-0.400000X0.625000X0.400000X0*%
%ADD13R,0.900000X0.800000*%
%ADD14RoundRect,0.250000X-0.337500X-0.475000X0.337500X-0.475000X0.337500X0.475000X-0.337500X0.475000X0*%
%ADD15RoundRect,0.150000X0.825000X0.150000X-0.825000X0.150000X-0.825000X-0.150000X0.825000X-0.150000X0*%
%ADD16R,2.290000X3.000000*%
%ADD17RoundRect,0.250000X-0.400000X-0.625000X0.400000X-0.625000X0.400000X0.625000X-0.400000X0.625000X0*%
%ADD18RoundRect,0.250000X0.625000X-0.400000X0.625000X0.400000X-0.625000X0.400000X-0.625000X-0.400000X0*%
%ADD19RoundRect,0.250000X0.475000X-0.337500X0.475000X0.337500X-0.475000X0.337500X-0.475000X-0.337500X0*%
%ADD20R,1.700000X1.700000*%
%ADD21O,1.700000X1.700000*%
%ADD22C,1.700000*%
%ADD23C,3.500000*%
%ADD24RoundRect,0.250000X0.600000X0.600000X-0.600000X0.600000X-0.600000X-0.600000X0.600000X-0.600000X0*%
%ADD25C,0.500000*%
G04 APERTURE END LIST*
D10*
%TO.C,R7*%
X115850000Y-144780000D03*
X112750000Y-144780000D03*
%TD*%
%TO.C,R13*%
X134900000Y-140970000D03*
X131800000Y-140970000D03*
%TD*%
D11*
%TO.C,C2*%
X124460000Y-152400000D03*
X124460000Y-155750000D03*
%TD*%
D12*
%TO.C,R1*%
X110490000Y-154025000D03*
X110490000Y-157125000D03*
%TD*%
D13*
%TO.C,Q1*%
X110855000Y-136210000D03*
X110855000Y-138110000D03*
X108855000Y-137160000D03*
%TD*%
D10*
%TO.C,R3*%
X115850000Y-142240000D03*
X112750000Y-142240000D03*
%TD*%
D14*
%TO.C,C5*%
X132715000Y-143510000D03*
X134790000Y-143510000D03*
%TD*%
D15*
%TO.C,U1*%
X118045000Y-153035000D03*
X118045000Y-154305000D03*
X118045000Y-155575000D03*
X118045000Y-156845000D03*
X113095000Y-156845000D03*
X113095000Y-155575000D03*
X113095000Y-154305000D03*
X113095000Y-153035000D03*
D16*
X115570000Y-154940000D03*
%TD*%
D10*
%TO.C,R9*%
X146330000Y-133350000D03*
X143230000Y-133350000D03*
%TD*%
D12*
%TO.C,R16*%
X140970000Y-149935000D03*
X140970000Y-153035000D03*
%TD*%
D17*
%TO.C,R11*%
X131800000Y-138430000D03*
X134900000Y-138430000D03*
%TD*%
%TO.C,R8*%
X114655000Y-133350000D03*
X117755000Y-133350000D03*
%TD*%
D10*
%TO.C,R6*%
X109855000Y-142240000D03*
X106755000Y-142240000D03*
%TD*%
D18*
%TO.C,R4*%
X123190000Y-138710000D03*
X123190000Y-135610000D03*
%TD*%
D19*
%TO.C,C1*%
X120650000Y-156845000D03*
X120650000Y-154770000D03*
%TD*%
D18*
%TO.C,R5*%
X125730000Y-138710000D03*
X125730000Y-135610000D03*
%TD*%
D12*
%TO.C,R2*%
X107950000Y-153390000D03*
X107950000Y-156490000D03*
%TD*%
D17*
%TO.C,R10*%
X131800000Y-135890000D03*
X134900000Y-135890000D03*
%TD*%
D20*
%TO.C,JP1*%
X129745000Y-155410000D03*
D21*
X132285000Y-155410000D03*
X134825000Y-155410000D03*
%TD*%
D20*
%TO.C,J1*%
X120650000Y-144760000D03*
D22*
X120650000Y-142260000D03*
X118650000Y-142260000D03*
X118650000Y-144760000D03*
D23*
X115940000Y-137490000D03*
X115940000Y-149530000D03*
%TD*%
D24*
%TO.C,J2*%
X162042500Y-148590000D03*
D22*
X159502500Y-148590000D03*
X162042500Y-146050000D03*
X159502500Y-146050000D03*
X162042500Y-143510000D03*
X159502500Y-143510000D03*
X162042500Y-140970000D03*
X159502500Y-140970000D03*
X162042500Y-138430000D03*
X159502500Y-138430000D03*
%TD*%
D20*
%TO.C,J3*%
X149225000Y-130810000D03*
D21*
X151765000Y-130810000D03*
X154305000Y-130810000D03*
X156845000Y-130810000D03*
X159385000Y-130810000D03*
X161925000Y-130810000D03*
%TD*%
D25*
%TO.C,mouse-bite-2.54mm-slot*%
X146850000Y-128100000D03*
X146050000Y-125900000D03*
X146850000Y-125900000D03*
X145250000Y-125900000D03*
X146050000Y-128100000D03*
X145250000Y-128100000D03*
%TD*%
%TO.C,mouse-bite-2.54mm-slot*%
X124460000Y-125900000D03*
X124460000Y-128100000D03*
X125260000Y-125900000D03*
X123660000Y-125900000D03*
X123660000Y-128100000D03*
X125260000Y-128100000D03*
%TD*%
D24*
%TO.C,J2*%
X162042500Y-116205000D03*
D22*
X159502500Y-116205000D03*
X162042500Y-113665000D03*
X159502500Y-113665000D03*
X162042500Y-111125000D03*
X159502500Y-111125000D03*
X162042500Y-108585000D03*
X159502500Y-108585000D03*
X162042500Y-106045000D03*
X159502500Y-106045000D03*
%TD*%
D20*
%TO.C,J1*%
X120650000Y-112375000D03*
D22*
X120650000Y-109875000D03*
X118650000Y-109875000D03*
X118650000Y-112375000D03*
D23*
X115940000Y-105105000D03*
X115940000Y-117145000D03*
%TD*%
D20*
%TO.C,J3*%
X149225000Y-98425000D03*
D21*
X151765000Y-98425000D03*
X154305000Y-98425000D03*
X156845000Y-98425000D03*
X159385000Y-98425000D03*
X161925000Y-98425000D03*
%TD*%
D20*
%TO.C,JP1*%
X129745000Y-123025000D03*
D21*
X132285000Y-123025000D03*
X134825000Y-123025000D03*
%TD*%
D17*
%TO.C,R11*%
X131800000Y-106045000D03*
X134900000Y-106045000D03*
%TD*%
D15*
%TO.C,U1*%
X118045000Y-120650000D03*
X118045000Y-121920000D03*
X118045000Y-123190000D03*
X118045000Y-124460000D03*
X113095000Y-124460000D03*
X113095000Y-123190000D03*
X113095000Y-121920000D03*
X113095000Y-120650000D03*
D16*
X115570000Y-122555000D03*
%TD*%
D10*
%TO.C,R7*%
X115850000Y-112395000D03*
X112750000Y-112395000D03*
%TD*%
D12*
%TO.C,R16*%
X140970000Y-117550000D03*
X140970000Y-120650000D03*
%TD*%
D13*
%TO.C,Q1*%
X110855000Y-103825000D03*
X110855000Y-105725000D03*
X108855000Y-104775000D03*
%TD*%
D10*
%TO.C,R3*%
X115850000Y-109855000D03*
X112750000Y-109855000D03*
%TD*%
D12*
%TO.C,R1*%
X110490000Y-121640000D03*
X110490000Y-124740000D03*
%TD*%
D17*
%TO.C,R8*%
X114655000Y-100965000D03*
X117755000Y-100965000D03*
%TD*%
D10*
%TO.C,R13*%
X134900000Y-108585000D03*
X131800000Y-108585000D03*
%TD*%
%TO.C,R9*%
X146330000Y-100965000D03*
X143230000Y-100965000D03*
%TD*%
D11*
%TO.C,C2*%
X124460000Y-120015000D03*
X124460000Y-123365000D03*
%TD*%
D14*
%TO.C,C5*%
X132715000Y-111125000D03*
X134790000Y-111125000D03*
%TD*%
D19*
%TO.C,C1*%
X120650000Y-124460000D03*
X120650000Y-122385000D03*
%TD*%
D18*
%TO.C,R4*%
X123190000Y-106325000D03*
X123190000Y-103225000D03*
%TD*%
D12*
%TO.C,R2*%
X107950000Y-121005000D03*
X107950000Y-124105000D03*
%TD*%
D17*
%TO.C,R10*%
X131800000Y-103505000D03*
X134900000Y-103505000D03*
%TD*%
D10*
%TO.C,R6*%
X109855000Y-109855000D03*
X106755000Y-109855000D03*
%TD*%
D18*
%TO.C,R5*%
X125730000Y-106325000D03*
X125730000Y-103225000D03*
%TD*%
M02*
