M48
; DRILL file {KiCad (6.0.2)} date Tue Feb 28 18:47:51 2023
; FORMAT={-:-/ absolute / metric / decimal}
; #@! TF.CreationDate,2023-02-28T18:47:51+01:00
; #@! TF.GenerationSoftware,Kicad,Pcbnew,(6.0.2)
; #@! TF.FileFunction,Plated,1,2,PTH
FMAT,2
METRIC
; #@! TA.AperFunction,Plated,PTH,ViaDrill
T1C0.400
; #@! TA.AperFunction,Plated,PTH,ComponentDrill
T2C0.920
; #@! TA.AperFunction,Plated,PTH,ComponentDrill
T3C1.000
; #@! TA.AperFunction,Plated,PTH,ComponentDrill
T4C2.330
%
G90
G05
T1
X106.883Y-106.426
X106.883Y-138.811
X109.677Y-116.129
X109.677Y-148.514
X111.125Y-114.3
X111.125Y-146.685
X119.304Y-106.172
X119.304Y-138.557
X122.174Y-115.697
X122.174Y-148.082
X122.555Y-118.745
X122.555Y-151.13
X125.781Y-109.957
X125.781Y-142.342
X127.406Y-97.434
X127.406Y-124.612
X127.406Y-129.819
X127.406Y-156.997
X127.432Y-116.154
X127.432Y-148.539
X127.66Y-101.676
X127.66Y-134.061
X128.27Y-119.38
X128.27Y-151.765
X133.35Y-101.854
X133.35Y-134.239
X136.398Y-109.22
X136.398Y-141.605
X137.16Y-106.045
X137.16Y-138.43
X137.795Y-104.775
X137.795Y-137.16
X139.802Y-98.146
X139.802Y-130.531
X142.875Y-109.22
X142.875Y-114.808
X142.875Y-121.158
X142.875Y-141.605
X142.875Y-147.193
X142.875Y-153.543
X142.885Y-107.559
X142.885Y-139.944
X143.51Y-102.87
X143.51Y-110.49
X143.51Y-135.255
X143.51Y-142.875
X143.627Y-106.817
X143.627Y-139.202
X145.415Y-99.695
X145.415Y-115.57
X145.415Y-132.08
X145.415Y-147.955
X146.05Y-106.045
X146.05Y-110.672
X146.05Y-138.43
X146.05Y-143.057
X147.32Y-99.695
X147.32Y-102.87
X147.32Y-132.08
X147.32Y-135.255
X150.622Y-112.014
X150.622Y-144.399
X150.825Y-116.053
X150.825Y-148.438
X154.686Y-110.744
X154.686Y-113.575
X154.686Y-143.129
X154.686Y-145.96
X154.94Y-119.329
X154.94Y-151.714
X159.944Y-102.438
X159.944Y-134.823
X163.246Y-120.218
X163.246Y-152.603
T2
X118.65Y-109.875
X118.65Y-112.375
X118.65Y-142.26
X118.65Y-144.76
X120.65Y-109.875
X120.65Y-112.375
X120.65Y-142.26
X120.65Y-144.76
T3
X129.745Y-123.025
X129.745Y-155.41
X132.285Y-123.025
X132.285Y-155.41
X134.825Y-123.025
X134.825Y-155.41
X149.225Y-98.425
X149.225Y-130.81
X151.765Y-98.425
X151.765Y-130.81
X154.305Y-98.425
X154.305Y-130.81
X156.845Y-98.425
X156.845Y-130.81
X159.385Y-98.425
X159.385Y-130.81
X159.502Y-106.045
X159.502Y-108.585
X159.502Y-111.125
X159.502Y-113.665
X159.502Y-116.205
X159.502Y-138.43
X159.502Y-140.97
X159.502Y-143.51
X159.502Y-146.05
X159.502Y-148.59
X161.925Y-98.425
X161.925Y-130.81
X162.042Y-106.045
X162.042Y-108.585
X162.042Y-111.125
X162.042Y-113.665
X162.042Y-116.205
X162.042Y-138.43
X162.042Y-140.97
X162.042Y-143.51
X162.042Y-146.05
X162.042Y-148.59
T4
X115.94Y-105.105
X115.94Y-117.145
X115.94Y-137.49
X115.94Y-149.53
T0
M30
