%TF.GenerationSoftware,KiCad,Pcbnew,(6.0.2)*%
%TF.CreationDate,2023-02-28T18:47:33+01:00*%
%TF.ProjectId,st_link_diy_panel,73745f6c-696e-46b5-9f64-69795f70616e,rev?*%
%TF.SameCoordinates,Original*%
%TF.FileFunction,Paste,Top*%
%TF.FilePolarity,Positive*%
%FSLAX46Y46*%
G04 Gerber Fmt 4.6, Leading zero omitted, Abs format (unit mm)*
G04 Created by KiCad (PCBNEW (6.0.2)) date 2023-02-28 18:47:33*
%MOMM*%
%LPD*%
G01*
G04 APERTURE LIST*
G04 Aperture macros list*
%AMRoundRect*
0 Rectangle with rounded corners*
0 $1 Rounding radius*
0 $2 $3 $4 $5 $6 $7 $8 $9 X,Y pos of 4 corners*
0 Add a 4 corners polygon primitive as box body*
4,1,4,$2,$3,$4,$5,$6,$7,$8,$9,$2,$3,0*
0 Add four circle primitives for the rounded corners*
1,1,$1+$1,$2,$3*
1,1,$1+$1,$4,$5*
1,1,$1+$1,$6,$7*
1,1,$1+$1,$8,$9*
0 Add four rect primitives between the rounded corners*
20,1,$1+$1,$2,$3,$4,$5,0*
20,1,$1+$1,$4,$5,$6,$7,0*
20,1,$1+$1,$6,$7,$8,$9,0*
20,1,$1+$1,$8,$9,$2,$3,0*%
G04 Aperture macros list end*
%ADD10RoundRect,0.250000X-0.400000X-0.625000X0.400000X-0.625000X0.400000X0.625000X-0.400000X0.625000X0*%
%ADD11RoundRect,0.237500X0.237500X-0.300000X0.237500X0.300000X-0.237500X0.300000X-0.237500X-0.300000X0*%
%ADD12RoundRect,0.250000X0.450000X-0.325000X0.450000X0.325000X-0.450000X0.325000X-0.450000X-0.325000X0*%
%ADD13RoundRect,0.250000X-0.625000X0.400000X-0.625000X-0.400000X0.625000X-0.400000X0.625000X0.400000X0*%
%ADD14RoundRect,0.250000X0.475000X-0.337500X0.475000X0.337500X-0.475000X0.337500X-0.475000X-0.337500X0*%
%ADD15RoundRect,0.250000X-0.450000X0.325000X-0.450000X-0.325000X0.450000X-0.325000X0.450000X0.325000X0*%
%ADD16RoundRect,0.250000X0.400000X0.625000X-0.400000X0.625000X-0.400000X-0.625000X0.400000X-0.625000X0*%
%ADD17RoundRect,0.250000X-0.475000X0.337500X-0.475000X-0.337500X0.475000X-0.337500X0.475000X0.337500X0*%
%ADD18RoundRect,0.075000X-0.662500X-0.075000X0.662500X-0.075000X0.662500X0.075000X-0.662500X0.075000X0*%
%ADD19RoundRect,0.075000X-0.075000X-0.662500X0.075000X-0.662500X0.075000X0.662500X-0.075000X0.662500X0*%
%ADD20R,2.000000X7.875000*%
%ADD21RoundRect,0.250000X-0.337500X-0.475000X0.337500X-0.475000X0.337500X0.475000X-0.337500X0.475000X0*%
G04 APERTURE END LIST*
D10*
%TO.C,R17*%
X150215000Y-153670000D03*
X153315000Y-153670000D03*
%TD*%
D11*
%TO.C,C4*%
X134620000Y-143102500D03*
X134620000Y-141377500D03*
%TD*%
D12*
%TO.C,D2*%
X147320000Y-154060000D03*
X147320000Y-152010000D03*
%TD*%
D13*
%TO.C,R12*%
X152605000Y-143700000D03*
X152605000Y-146800000D03*
%TD*%
D14*
%TO.C,C8*%
X140335000Y-134387500D03*
X140335000Y-132312500D03*
%TD*%
D15*
%TO.C,D1*%
X144780000Y-152010000D03*
X144780000Y-154060000D03*
%TD*%
D10*
%TO.C,R14*%
X135610000Y-151765000D03*
X138710000Y-151765000D03*
%TD*%
D16*
%TO.C,R15*%
X138710000Y-148590000D03*
X135610000Y-148590000D03*
%TD*%
D17*
%TO.C,C6*%
X137160000Y-144377500D03*
X137160000Y-146452500D03*
%TD*%
D18*
%TO.C,U2*%
X139982500Y-138220000D03*
X139982500Y-138720000D03*
X139982500Y-139220000D03*
X139982500Y-139720000D03*
X139982500Y-140220000D03*
X139982500Y-140720000D03*
X139982500Y-141220000D03*
X139982500Y-141720000D03*
X139982500Y-142220000D03*
X139982500Y-142720000D03*
X139982500Y-143220000D03*
X139982500Y-143720000D03*
D19*
X141395000Y-145132500D03*
X141895000Y-145132500D03*
X142395000Y-145132500D03*
X142895000Y-145132500D03*
X143395000Y-145132500D03*
X143895000Y-145132500D03*
X144395000Y-145132500D03*
X144895000Y-145132500D03*
X145395000Y-145132500D03*
X145895000Y-145132500D03*
X146395000Y-145132500D03*
X146895000Y-145132500D03*
D18*
X148307500Y-143720000D03*
X148307500Y-143220000D03*
X148307500Y-142720000D03*
X148307500Y-142220000D03*
X148307500Y-141720000D03*
X148307500Y-141220000D03*
X148307500Y-140720000D03*
X148307500Y-140220000D03*
X148307500Y-139720000D03*
X148307500Y-139220000D03*
X148307500Y-138720000D03*
X148307500Y-138220000D03*
D19*
X146895000Y-136807500D03*
X146395000Y-136807500D03*
X145895000Y-136807500D03*
X145395000Y-136807500D03*
X144895000Y-136807500D03*
X144395000Y-136807500D03*
X143895000Y-136807500D03*
X143395000Y-136807500D03*
X142895000Y-136807500D03*
X142395000Y-136807500D03*
X141895000Y-136807500D03*
X141395000Y-136807500D03*
%TD*%
D20*
%TO.C,Y1*%
X130810000Y-146907500D03*
X130810000Y-135032500D03*
%TD*%
D17*
%TO.C,C9*%
X148590000Y-146917500D03*
X148590000Y-148992500D03*
%TD*%
D21*
%TO.C,C7*%
X149457500Y-134620000D03*
X151532500Y-134620000D03*
%TD*%
D11*
%TO.C,C3*%
X134620000Y-139700000D03*
X134620000Y-137975000D03*
%TD*%
%TO.C,C3*%
X134620000Y-107315000D03*
X134620000Y-105590000D03*
%TD*%
D20*
%TO.C,Y1*%
X130810000Y-114522500D03*
X130810000Y-102647500D03*
%TD*%
D21*
%TO.C,C7*%
X149457500Y-102235000D03*
X151532500Y-102235000D03*
%TD*%
D17*
%TO.C,C9*%
X148590000Y-114532500D03*
X148590000Y-116607500D03*
%TD*%
D18*
%TO.C,U2*%
X139982500Y-105835000D03*
X139982500Y-106335000D03*
X139982500Y-106835000D03*
X139982500Y-107335000D03*
X139982500Y-107835000D03*
X139982500Y-108335000D03*
X139982500Y-108835000D03*
X139982500Y-109335000D03*
X139982500Y-109835000D03*
X139982500Y-110335000D03*
X139982500Y-110835000D03*
X139982500Y-111335000D03*
D19*
X141395000Y-112747500D03*
X141895000Y-112747500D03*
X142395000Y-112747500D03*
X142895000Y-112747500D03*
X143395000Y-112747500D03*
X143895000Y-112747500D03*
X144395000Y-112747500D03*
X144895000Y-112747500D03*
X145395000Y-112747500D03*
X145895000Y-112747500D03*
X146395000Y-112747500D03*
X146895000Y-112747500D03*
D18*
X148307500Y-111335000D03*
X148307500Y-110835000D03*
X148307500Y-110335000D03*
X148307500Y-109835000D03*
X148307500Y-109335000D03*
X148307500Y-108835000D03*
X148307500Y-108335000D03*
X148307500Y-107835000D03*
X148307500Y-107335000D03*
X148307500Y-106835000D03*
X148307500Y-106335000D03*
X148307500Y-105835000D03*
D19*
X146895000Y-104422500D03*
X146395000Y-104422500D03*
X145895000Y-104422500D03*
X145395000Y-104422500D03*
X144895000Y-104422500D03*
X144395000Y-104422500D03*
X143895000Y-104422500D03*
X143395000Y-104422500D03*
X142895000Y-104422500D03*
X142395000Y-104422500D03*
X141895000Y-104422500D03*
X141395000Y-104422500D03*
%TD*%
D17*
%TO.C,C6*%
X137160000Y-111992500D03*
X137160000Y-114067500D03*
%TD*%
D16*
%TO.C,R15*%
X138710000Y-116205000D03*
X135610000Y-116205000D03*
%TD*%
D10*
%TO.C,R14*%
X135610000Y-119380000D03*
X138710000Y-119380000D03*
%TD*%
D15*
%TO.C,D1*%
X144780000Y-119625000D03*
X144780000Y-121675000D03*
%TD*%
D11*
%TO.C,C4*%
X134620000Y-110717500D03*
X134620000Y-108992500D03*
%TD*%
D14*
%TO.C,C8*%
X140335000Y-102002500D03*
X140335000Y-99927500D03*
%TD*%
D13*
%TO.C,R12*%
X152605000Y-111315000D03*
X152605000Y-114415000D03*
%TD*%
D10*
%TO.C,R17*%
X150215000Y-121285000D03*
X153315000Y-121285000D03*
%TD*%
D12*
%TO.C,D2*%
X147320000Y-121675000D03*
X147320000Y-119625000D03*
%TD*%
M02*
